<svg version="1.1" xmlns="http://www.w3.org/2000/svg" style="display:none">
    <symbol id="account" viewBox="0 0 24 24"
            fill="none"
            stroke="currentColor"
            stroke-width="2"
            stroke-linecap="round"
            stroke-linejoin="round">
        <path d="M20 21v-2a4 4 0 0 0-4-4H8a4 4 0 0 0-4 4v2"/>
        <circle cx="12" cy="7" r="4"/>
    </symbol>
    <symbol id="bookmark" viewBox="0 0 24 24"
            fill="none"
            stroke="currentColor"
            stroke-width="2"
            stroke-linecap="round"
            stroke-linejoin="round">
        <path d="m19 21-7-5-7 5V5a2 2 0 0 1 2-2h10a2 2 0 0 1 2 2z"/>
    </symbol>
    <symbol id="camera" viewBox="0 0 24 24"
            fill="none"
            stroke="currentColor"
            stroke-width="2"
            stroke-linecap="round"
            stroke-linejoin="round">
        <path d="M23 19a2 2 0 0 1-2 2H3a2 2 0 0 1-2-2V8a2 2 0 0 1 2-2h4l2-3h6l2 3h4a2 2 0 0 1 2 2z"/>
        <circle cx="12" cy="13" r="4"/>
    </symbol>
    <symbol id="cart" viewBox="0 0 24 24"
            fill="none"
            stroke="currentColor"
            stroke-width="2"
            stroke-linecap="round"
            stroke-linejoin="round">
        <circle cx="9" cy="21" r="1"/>
        <circle cx="20" cy="21" r="1"/>
        <path d="M1 1h4l2.68 13.39a2 2 0 0 0 2 1.61h9.72a2 2 0 0 0 2-1.61L23 6H6"/>
    </symbol>
    <symbol id="cross" viewBox="0 0 24 24"
            fill="none"
            stroke="currentColor"
            stroke-width="2"
            stroke-linecap="round"
            stroke-linejoin="round">
        <path d="M18 6 6 18M6 6l12 12"/>
    </symbol>
    <symbol id="menu" viewBox="0 0 24 24"
            fill="none"
            stroke="currentColor"
            stroke-width="2"
            stroke-linecap="round"
            stroke-linejoin="round">
        <path d="M3 12h18M3 6h18M3 18h18"/>
    </symbol>
    <symbol id="search" viewBox="0 0 24 24"
            fill="none"
            stroke="currentColor"
            stroke-width="2"
            stroke-linecap="round"
            stroke-linejoin="round">
        <circle cx="11" cy="11" r="8"/>
        <path d="m21 21-4.35-4.35"/>
    </symbol>
    <symbol id="wishlist" viewBox="0 0 24 24"
            fill="none"
            stroke="currentColor"
            stroke-width="2"
            stroke-linecap="round"
            stroke-linejoin="round">
        <path d="M20.84 4.61a5.5 5.5 0 0 0-7.78 0L12 5.67l-1.06-1.06a5.5 5.5 0 0 0-7.78 7.78l1.06 1.06L12 21.23l7.78-7.78 1.06-1.06a5.5 5.5 0 0 0 0-7.78z"/>
    </symbol>
</svg>