<svg xmlns="http://www.w3.org/2000/svg" xmlns:xlink="http://www.w3.org/1999/xlink" width="164" height="33"><script/><defs><path id="a" d="M68.085 15.75a5.674 5.674 0 0 1 5.668 5.668 5.674 5.674 0 0 1-5.668 5.668 5.674 5.674 0 0 1-5.668-5.668 5.674 5.674 0 0 1 5.668-5.668m0 14.117c-4.659 0-8.449-3.79-8.449-8.449 0-4.658 3.79-8.448 8.449-8.448 4.658 0 8.448 3.79 8.448 8.448 0 4.659-3.79 8.449-8.448 8.449Zm64.502 1.297h31.306v2.678h-31.306v2.14c0 2.657-2.188 4.818-4.878 4.818s-4.877-2.161-4.877-4.818c0-2.657 2.187-4.818 4.877-4.818h2.167v-2.952a6.976 6.976 0 0 1-4.442 1.425c-3.73-.1-6.764-3.234-6.764-6.985V21.36l-5.338 5.273a10.524 10.524 0 0 1-7.344 3.004c-.031-.002-.067 0-.1 0h-.395v-.014c-1.75-.1-3.323-.755-4.7-1.954a17.13 17.13 0 0 1-7.947 1.955l-5.865.012a7.98 7.98 0 0 1-.254.004h-1.654l-.003-2.677 1.87-.004c2.459-.088 4.035-1.714 4.035-4.192 0-1.485-.93-3.324-1.83-5.104a37.826 37.826 0 0 1-1.054-2.207 5236.367 5236.367 0 0 1-7.995 13.525l-.295.461a14.659 14.659 0 0 1-12.227 6.517c-8.065 0-14.626-6.48-14.626-14.447v-1.104c0-2.292-1.947-4.338-4.167-4.379a4.254 4.254 0 0 0-3.056 1.201 4.14 4.14 0 0 0-1.272 2.994v8.077h-2.71v-8.077c0-2.313-1.906-4.195-4.248-4.195-2.342 0-4.247 1.882-4.247 4.195v8.077h-2.711v-8.077c0-2.313-1.906-4.195-4.248-4.195H0V13.35h26.29c2.299 0 4.334 1.113 5.602 2.815a6.974 6.974 0 0 1 5.603-2.815 6.974 6.974 0 0 1 5.6 2.812c.221-.296.46-.58.73-.843a6.947 6.947 0 0 1 5.005-1.967c3.702.066 6.829 3.298 6.829 7.055v1.104c0 6.49 5.345 11.77 11.915 11.77 4.015 0 7.735-1.98 9.95-5.293l.258-.403C80.04 23.797 87.96 10.359 88.04 10.225l.006.002c.423-.74.962-1.29 1.36-1.579l1.61 2.153c-.016.013-.371.29-.637.768l.003.002-.023.04c-.15.281-.267.626-.267 1.026 0 .903.752 2.391 1.479 3.83.991 1.96 2.116 4.183 2.116 6.3 0 1.612-.48 3.046-1.318 4.18h.472a14.436 14.436 0 0 0 6.178-1.393c-1.334-2.254-1.526-5.006-.4-7.354 1.214-2.533 3.453-4.25 6.143-4.71a8.316 8.316 0 0 1 7.236 2.262v1.894l-7.142 7.047c-.525.518-1.079 1-1.657 1.44.835.56 1.73.826 2.75.826H105.988a7.78 7.78 0 0 0 5.427-2.219l7.237-7.148.018.017V14.69h2.71v7.962c0 2.314 1.852 4.248 4.128 4.31 1.17.03 2.254-.391 3.083-1.188a4.139 4.139 0 0 0 1.285-3.007v-8.059h2.71v16.456Zm-2.71 4.818v-2.14h-2.168c-1.195 0-2.167.96-2.167 2.14 0 1.18.972 2.14 2.167 2.14 1.195 0 2.167-.96 2.167-2.14Zm-28.54-11.815a14.52 14.52 0 0 0 1.602-1.367L109 16.817a5.595 5.595 0 0 0-3.777-.69c-1.81.31-3.325 1.484-4.156 3.219-.732 1.525-.603 3.325.269 4.821Z"/></defs><g fill="none" fill-rule="evenodd" transform="translate(0 -8)"><mask id="b" fill="#fff"><use xlink:href="#a"/></mask><use xlink:href="#a" fill="#1A1A1A"/></g><script/></svg>